# Blender v2.78 (sub 0) OBJ File: 'brick1.blend'
# www.blender.org
mtllib brick1.mtl
o Cube_Cube.002
v -0.500000 -0.100000 0.500000
v -0.500000 0.100000 0.500000
v -0.500000 -0.100000 -0.500000
v -0.500000 0.100000 -0.500000
v 0.500000 -0.100000 0.500000
v 0.500000 0.100000 0.500000
v 0.500000 -0.100000 -0.500000
v 0.500000 0.100000 -0.500000
vt 0.9792 0.0154
vt 0.9792 -0.0994
vt 1.9583 -0.0994
vt 1.9583 0.0154
vt -1.9583 0.0154
vt -1.9583 -0.0994
vt -0.9791 -0.0994
vt -0.9791 0.0154
vt 0.0000 -0.0994
vt 0.0000 0.0154
vt 0.9792 0.9946
vt 0.0000 0.9946
vt 0.0000 -1.0785
vt 0.9792 -1.0785
vn -1.0000 0.0000 0.0000
vn 0.0000 0.0000 -1.0000
vn 1.0000 0.0000 0.0000
vn 0.0000 0.0000 1.0000
vn 0.0000 -1.0000 0.0000
vn 0.0000 1.0000 0.0000
usemtl Material.002
s off
f 1/1/1 2/2/1 4/3/1 3/4/1
f 3/5/2 4/6/2 8/7/2 7/8/2
f 7/8/3 8/7/3 6/9/3 5/10/3
f 5/10/4 6/9/4 2/2/4 1/1/4
f 3/11/5 7/12/5 5/10/5 1/1/5
f 8/13/6 4/14/6 2/2/6 6/9/6
